<svg xmlns="http://www.w3.org/2000/svg" xmlns:xlink="http://www.w3.org/1999/xlink" width="500" zoomAndPan="magnify" viewBox="0 0 375 374.999991" height="500" preserveAspectRatio="xMidYMid meet" version="1.0"><defs><g/><clipPath id="4f75895625"><path d="M 194 105.050781 L 230 105.050781 L 230 171 L 194 171 Z M 194 105.050781 " clip-rule="nonzero"/></clipPath><clipPath id="ac014bb7bc"><path d="M 145 105.050781 L 181 105.050781 L 181 171 L 145 171 Z M 145 105.050781 " clip-rule="nonzero"/></clipPath><clipPath id="26725ec320"><path d="M 119.308594 124 L 255.808594 124 L 255.808594 215.300781 L 119.308594 215.300781 Z M 119.308594 124 " clip-rule="nonzero"/></clipPath></defs><g clip-path="url(#4f75895625)"><path fill="#f6ce17" d="M 195.394531 143.71875 L 194.425781 144.445312 L 195.527344 144.945312 C 197.636719 145.90625 199.535156 147.226562 201.179688 148.871094 C 204.816406 152.519531 206.820312 157.363281 206.820312 162.515625 L 206.820312 170.90625 L 229.273438 141.035156 L 229.582031 140.628906 C 228.710938 139.03125 227.605469 137.554688 226.289062 136.234375 C 225.054688 135 223.65625 133.941406 222.144531 133.082031 C 221.820312 132.898438 221.488281 132.722656 221.152344 132.5625 C 220.777344 132.371094 220.394531 132.199219 220 132.039062 C 219.433594 131.800781 218.859375 131.59375 218.269531 131.417969 L 216.476562 130.871094 L 218.175781 130.082031 C 220.722656 128.894531 222.773438 126.9375 224.097656 124.566406 C 224.195312 124.394531 224.289062 124.222656 224.375 124.042969 C 224.460938 123.871094 224.546875 123.695312 224.621094 123.523438 C 225.363281 121.867188 225.769531 120.046875 225.769531 118.175781 C 225.769531 110.9375 219.890625 105.050781 212.667969 105.050781 C 205.445312 105.050781 199.566406 110.9375 199.566406 118.175781 C 199.566406 120.453125 200.164062 122.644531 201.238281 124.566406 C 202.5625 126.9375 204.609375 128.894531 207.15625 130.082031 L 208.855469 130.871094 L 207.0625 131.417969 C 206.472656 131.597656 205.898438 131.804688 205.332031 132.039062 C 203.597656 132.753906 201.988281 133.714844 200.554688 134.878906 C 200.113281 138.398438 198.289062 141.550781 195.394531 143.71875 " fill-opacity="1" fill-rule="nonzero"/></g><g clip-path="url(#ac014bb7bc)"><path fill="#7758f6" d="M 179.589844 144.945312 L 180.691406 144.445312 L 179.722656 143.71875 C 176.832031 141.554688 175.003906 138.398438 174.5625 134.878906 C 173.117188 133.707031 171.503906 132.75 169.789062 132.039062 C 169.222656 131.800781 168.640625 131.59375 168.054688 131.417969 L 166.257812 130.871094 L 167.960938 130.082031 C 170.507812 128.894531 172.558594 126.9375 173.882812 124.566406 C 174.953125 122.644531 175.550781 120.453125 175.550781 118.175781 C 175.550781 110.9375 169.671875 105.050781 162.449219 105.050781 C 155.226562 105.050781 149.347656 110.9375 149.347656 118.175781 C 149.347656 120.046875 149.753906 121.867188 150.496094 123.523438 C 150.574219 123.695312 150.65625 123.871094 150.742188 124.042969 C 150.832031 124.222656 150.921875 124.394531 151.019531 124.566406 C 152.34375 126.9375 154.390625 128.894531 156.9375 130.082031 L 158.640625 130.871094 L 156.84375 131.417969 C 156.257812 131.59375 155.679688 131.800781 155.113281 132.039062 C 154.890625 132.128906 154.667969 132.226562 154.449219 132.332031 C 154.375 132.363281 154.304688 132.394531 154.230469 132.429688 C 154.140625 132.472656 154.050781 132.515625 153.960938 132.5625 C 153.628906 132.726562 153.304688 132.898438 152.980469 133.082031 C 150.683594 134.386719 148.648438 136.164062 147.050781 138.285156 C 146.484375 139.039062 145.980469 139.820312 145.535156 140.632812 L 145.839844 141.039062 L 168.296875 170.910156 L 168.296875 162.515625 C 168.296875 154.972656 172.730469 148.074219 179.589844 144.945312 " fill-opacity="1" fill-rule="nonzero"/></g><path fill="#fc486b" d="M 201.179688 148.871094 C 199.535156 147.226562 197.636719 145.90625 195.527344 144.945312 L 194.425781 144.445312 L 195.394531 143.71875 C 198.289062 141.550781 200.113281 138.398438 200.554688 134.878906 C 200.578125 134.6875 200.597656 134.492188 200.609375 134.296875 C 200.628906 134.117188 200.640625 133.929688 200.644531 133.75 C 200.65625 133.566406 200.660156 133.382812 200.660156 133.203125 C 200.660156 132.808594 200.640625 132.421875 200.605469 132.039062 C 200.355469 129.191406 199.195312 126.601562 197.414062 124.566406 C 195.011719 121.816406 191.484375 120.078125 187.558594 120.078125 C 183.632812 120.078125 180.105469 121.816406 177.703125 124.566406 C 175.921875 126.601562 174.757812 129.191406 174.507812 132.039062 C 174.472656 132.421875 174.457031 132.808594 174.457031 133.203125 C 174.457031 133.382812 174.460938 133.566406 174.46875 133.75 C 174.476562 133.933594 174.484375 134.117188 174.503906 134.300781 C 174.519531 134.496094 174.539062 134.6875 174.5625 134.878906 C 175.003906 138.398438 176.832031 141.554688 179.722656 143.71875 L 180.691406 144.445312 L 179.589844 144.945312 C 172.730469 148.074219 168.296875 154.972656 168.296875 162.515625 L 168.296875 170.910156 L 168.714844 171.464844 L 169.128906 172.015625 L 169.132812 172.019531 L 180.574219 187.242188 L 187.558594 196.53125 L 194.539062 187.242188 L 205.984375 172.015625 L 205.988281 172.015625 L 206.402344 171.460938 L 206.820312 170.90625 L 206.820312 162.515625 C 206.820312 157.363281 204.816406 152.519531 201.179688 148.871094 " fill-opacity="1" fill-rule="nonzero"/><g clip-path="url(#26725ec320)"><path fill="#03ccac" d="M 255.765625 124.566406 L 187.558594 215.296875 L 119.351562 124.566406 L 143.011719 124.566406 L 150.871094 132.4375 L 135.113281 132.4375 L 187.558594 202.207031 L 240.007812 132.4375 L 224.246094 132.4375 L 232.105469 124.566406 L 255.765625 124.566406 " fill-opacity="1" fill-rule="nonzero"/></g><g fill="#494949" fill-opacity="1"><g transform="translate(88.838004, 247.1388)"><g><path d="M 9.0625 0.179688 C 13.585938 0.179688 16.878906 -0.433594 16.878906 -3.800781 C 16.878906 -6.984375 13.785156 -7.234375 8.792969 -7.527344 C 4.867188 -7.761719 4.015625 -8.015625 4.015625 -9.117188 C 4.015625 -10.167969 4.867188 -10.546875 8.320312 -10.546875 C 11.992188 -10.546875 13.476562 -10.128906 13.476562 -8.539062 L 16.335938 -8.539062 C 16.335938 -11.648438 13.421875 -12.84375 8.683594 -12.84375 C 4.015625 -12.84375 1.15625 -12.046875 1.15625 -9.261719 C 1.15625 -6.441406 3.347656 -5.589844 8.792969 -5.320312 C 13.207031 -5.082031 14.019531 -4.902344 14.019531 -3.691406 C 14.019531 -2.570312 12.808594 -2.117188 9.242188 -2.117188 C 4.8125 -2.117188 3.5625 -2.804688 3.5625 -4.339844 L 0.707031 -4.339844 C 0.707031 -0.707031 3.871094 0.179688 9.0625 0.179688 Z M 9.0625 0.179688 "/></g></g></g><g fill="#494949" fill-opacity="1"><g transform="translate(111.426448, 247.1388)"><g><path d="M 0.886719 0 L 3.746094 0 L 3.746094 -12.664062 L 0.886719 -12.664062 Z M 0.886719 0 "/></g></g></g><g fill="#494949" fill-opacity="1"><g transform="translate(121.067469, 247.1388)"><g><path d="M 9.0625 0.179688 C 13.585938 0.179688 16.878906 -0.433594 16.878906 -3.800781 C 16.878906 -6.984375 13.785156 -7.234375 8.792969 -7.527344 C 4.867188 -7.761719 4.015625 -8.015625 4.015625 -9.117188 C 4.015625 -10.167969 4.867188 -10.546875 8.320312 -10.546875 C 11.992188 -10.546875 13.476562 -10.128906 13.476562 -8.539062 L 16.335938 -8.539062 C 16.335938 -11.648438 13.421875 -12.84375 8.683594 -12.84375 C 4.015625 -12.84375 1.15625 -12.046875 1.15625 -9.261719 C 1.15625 -6.441406 3.347656 -5.589844 8.792969 -5.320312 C 13.207031 -5.082031 14.019531 -4.902344 14.019531 -3.691406 C 14.019531 -2.570312 12.808594 -2.117188 9.242188 -2.117188 C 4.8125 -2.117188 3.5625 -2.804688 3.5625 -4.339844 L 0.707031 -4.339844 C 0.707031 -0.707031 3.871094 0.179688 9.0625 0.179688 Z M 9.0625 0.179688 "/></g></g></g><g fill="#494949" fill-opacity="1"><g transform="translate(143.655913, 247.1388)"><g><path d="M 7.054688 0 L 9.914062 0 L 9.914062 -10.257812 L 16.261719 -10.257812 L 16.261719 -12.664062 L 0.707031 -12.664062 L 0.707031 -10.257812 L 7.054688 -10.257812 Z M 7.054688 0 "/></g></g></g><g fill="#494949" fill-opacity="1"><g transform="translate(165.629535, 247.1388)"><g><path d="M 0.886719 0 L 14.273438 0 L 14.273438 -2.296875 L 3.746094 -2.296875 L 3.746094 -5.246094 L 14.273438 -5.246094 L 14.273438 -7.417969 L 3.746094 -7.417969 L 3.746094 -10.367188 L 14.273438 -10.367188 L 14.273438 -12.664062 L 0.886719 -12.664062 Z M 0.886719 0 "/></g></g></g><g fill="#494949" fill-opacity="1"><g transform="translate(185.614027, 247.1388)"><g><path d="M 0.886719 0 L 3.746094 0 L 3.746094 -9.28125 L 9.515625 0 L 11.667969 0 L 17.421875 -9.28125 L 17.421875 0 L 20.277344 0 L 20.277344 -12.664062 L 16.261719 -12.664062 L 10.582031 -3.308594 L 4.902344 -12.664062 L 0.886719 -12.664062 Z M 0.886719 0 "/></g></g></g><g fill="#494949" fill-opacity="1"><g transform="translate(211.782904, 247.1388)"><g><path d="M 0.707031 0 L 3.871094 0 L 5.410156 -2.804688 L 13.476562 -2.804688 L 15.015625 0 L 18.179688 0 L 11.289062 -12.664062 L 7.597656 -12.664062 Z M 6.511719 -5.011719 L 9.441406 -10.328125 L 12.375 -5.011719 Z M 6.511719 -5.011719 "/></g></g></g><g fill="#494949" fill-opacity="1"><g transform="translate(235.673315, 247.1388)"><g/></g></g><g fill="#494949" fill-opacity="1"><g transform="translate(249.238337, 247.1388)"><g><path d="M 0.886719 0 L 10.039062 0 C 13.351562 0 16.226562 -2.027344 16.226562 -6.332031 C 16.226562 -10.636719 13.351562 -12.664062 10.039062 -12.664062 L 0.886719 -12.664062 Z M 3.746094 -2.40625 L 3.746094 -10.257812 L 8.847656 -10.257812 C 11.703125 -10.257812 13.367188 -9.605469 13.367188 -6.332031 C 13.367188 -3.058594 11.703125 -2.40625 8.847656 -2.40625 Z M 3.746094 -2.40625 "/></g></g></g><g fill="#494949" fill-opacity="1"><g transform="translate(271.175786, 247.1388)"><g><path d="M 0.886719 0 L 14.273438 0 L 14.273438 -2.296875 L 3.746094 -2.296875 L 3.746094 -5.246094 L 14.273438 -5.246094 L 14.273438 -7.417969 L 3.746094 -7.417969 L 3.746094 -10.367188 L 14.273438 -10.367188 L 14.273438 -12.664062 L 0.886719 -12.664062 Z M 0.886719 0 "/></g></g></g><g fill="#03ccac" fill-opacity="1"><g transform="translate(102.679107, 267.025564)"><g><path d="M 3.871094 0 L 5.78125 0 L 9.28125 -6.464844 L 7.628906 -6.464844 L 4.820312 -1.199219 L 2.011719 -6.464844 L 0.359375 -6.464844 Z M 3.871094 0 "/></g></g></g><g fill="#03ccac" fill-opacity="1"><g transform="translate(114.169677, 267.025564)"><g><path d="M 0.453125 0 L 1.910156 0 L 1.910156 -6.464844 L 0.453125 -6.464844 Z M 0.453125 0 "/></g></g></g><g fill="#03ccac" fill-opacity="1"><g transform="translate(118.381644, 267.025564)"><g><path d="M 0.453125 0 L 1.910156 0 L 1.910156 -4.96875 L 6.769531 0 L 8.785156 0 L 8.785156 -6.464844 L 7.324219 -6.464844 L 7.324219 -1.496094 L 2.476562 -6.464844 L 0.453125 -6.464844 Z M 0.453125 0 "/></g></g></g><g fill="#03ccac" fill-opacity="1"><g transform="translate(129.465796, 267.025564)"><g><path d="M 4.425781 0.09375 C 7 0.09375 8.277344 -0.921875 8.460938 -2.734375 L 6.984375 -2.734375 C 6.816406 -1.578125 5.902344 -1.136719 4.425781 -1.136719 C 2.679688 -1.136719 1.820312 -1.746094 1.820312 -3.242188 C 1.820312 -4.730469 2.667969 -5.328125 4.425781 -5.328125 C 5.910156 -5.328125 6.816406 -4.894531 6.984375 -3.75 L 8.453125 -3.75 C 8.277344 -5.550781 7 -6.558594 4.425781 -6.558594 C 1.578125 -6.558594 0.359375 -5.347656 0.359375 -3.242188 C 0.359375 -1.125 1.578125 0.09375 4.425781 0.09375 Z M 4.425781 0.09375 "/></g></g></g><g fill="#03ccac" fill-opacity="1"><g transform="translate(140.134291, 267.025564)"><g><path d="M 4.515625 0.09375 C 7.351562 0.09375 8.582031 -0.996094 8.582031 -3.242188 L 8.582031 -6.464844 L 7.121094 -6.464844 L 7.121094 -3.242188 C 7.121094 -2.289062 6.871094 -1.136719 4.515625 -1.136719 C 2.160156 -1.136719 1.910156 -2.28125 1.910156 -3.242188 L 1.910156 -6.464844 L 0.453125 -6.464844 L 0.453125 -3.242188 C 0.453125 -0.988281 1.671875 0.09375 4.515625 0.09375 Z M 4.515625 0.09375 "/></g></g></g><g fill="#03ccac" fill-opacity="1"><g transform="translate(151.015231, 267.025564)"><g><path d="M 0.453125 0 L 7.101562 0 L 7.101562 -1.226562 L 1.910156 -1.226562 L 1.910156 -6.464844 L 0.453125 -6.464844 Z M 0.453125 0 "/></g></g></g><g fill="#03ccac" fill-opacity="1"><g transform="translate(160.32592, 267.025564)"><g><path d="M 0.359375 0 L 1.976562 0 L 2.761719 -1.433594 L 6.882812 -1.433594 L 7.667969 0 L 9.28125 0 L 5.765625 -6.464844 L 3.878906 -6.464844 Z M 3.324219 -2.558594 L 4.820312 -5.273438 L 6.316406 -2.558594 Z M 3.324219 -2.558594 "/></g></g></g><g fill="#03ccac" fill-opacity="1"><g transform="translate(171.816491, 267.025564)"><g><path d="M 4.425781 0.09375 C 7 0.09375 8.277344 -0.921875 8.460938 -2.734375 L 6.984375 -2.734375 C 6.816406 -1.578125 5.902344 -1.136719 4.425781 -1.136719 C 2.679688 -1.136719 1.820312 -1.746094 1.820312 -3.242188 C 1.820312 -4.730469 2.667969 -5.328125 4.425781 -5.328125 C 5.910156 -5.328125 6.816406 -4.894531 6.984375 -3.75 L 8.453125 -3.75 C 8.277344 -5.550781 7 -6.558594 4.425781 -6.558594 C 1.578125 -6.558594 0.359375 -5.347656 0.359375 -3.242188 C 0.359375 -1.125 1.578125 0.09375 4.425781 0.09375 Z M 4.425781 0.09375 "/></g></g></g><g fill="#03ccac" fill-opacity="1"><g transform="translate(182.484985, 267.025564)"><g><path d="M 0.453125 0 L 1.910156 0 L 1.910156 -6.464844 L 0.453125 -6.464844 Z M 0.453125 0 "/></g></g></g><g fill="#03ccac" fill-opacity="1"><g transform="translate(186.696955, 267.025564)"><g><path d="M 2.625 -7.289062 L 6.214844 -8.027344 L 6.214844 -9.050781 L 2.625 -8.3125 Z M 4.425781 0.09375 C 7.261719 0.09375 8.488281 -1.136719 8.488281 -3.242188 C 8.488281 -5.339844 7.261719 -6.558594 4.425781 -6.558594 C 1.578125 -6.558594 0.359375 -5.347656 0.359375 -3.242188 C 0.359375 -1.125 1.578125 0.09375 4.425781 0.09375 Z M 4.425781 -1.136719 C 2.605469 -1.136719 1.820312 -1.746094 1.820312 -3.242188 C 1.820312 -4.730469 2.59375 -5.328125 4.425781 -5.328125 C 6.253906 -5.328125 7.027344 -4.71875 7.027344 -3.242188 C 7.027344 -1.753906 6.242188 -1.136719 4.425781 -1.136719 Z M 4.425781 -1.136719 "/></g></g></g><g fill="#03ccac" fill-opacity="1"><g transform="translate(197.393156, 267.025564)"><g><path d="M 0.453125 0 L 1.910156 0 L 1.910156 -4.96875 L 6.769531 0 L 8.785156 0 L 8.785156 -6.464844 L 7.324219 -6.464844 L 7.324219 -1.496094 L 2.476562 -6.464844 L 0.453125 -6.464844 Z M 0.453125 0 "/></g></g></g><g fill="#03ccac" fill-opacity="1"><g transform="translate(208.477311, 267.025564)"><g/></g></g><g fill="#03ccac" fill-opacity="1"><g transform="translate(214.69366, 267.025564)"><g><path d="M 4.425781 0.09375 C 7 0.09375 8.277344 -0.921875 8.460938 -2.734375 L 6.984375 -2.734375 C 6.816406 -1.578125 5.902344 -1.136719 4.425781 -1.136719 C 2.679688 -1.136719 1.820312 -1.746094 1.820312 -3.242188 C 1.820312 -4.730469 2.667969 -5.328125 4.425781 -5.328125 C 5.910156 -5.328125 6.816406 -4.894531 6.984375 -3.75 L 8.453125 -3.75 C 8.277344 -5.550781 7 -6.558594 4.425781 -6.558594 C 1.578125 -6.558594 0.359375 -5.347656 0.359375 -3.242188 C 0.359375 -1.125 1.578125 0.09375 4.425781 0.09375 Z M 4.425781 0.09375 "/></g></g></g><g fill="#03ccac" fill-opacity="1"><g transform="translate(225.362149, 267.025564)"><g><path d="M 4.425781 0.09375 C 7.261719 0.09375 8.488281 -1.136719 8.488281 -3.242188 C 8.488281 -5.339844 7.261719 -6.558594 4.425781 -6.558594 C 1.578125 -6.558594 0.359375 -5.347656 0.359375 -3.242188 C 0.359375 -1.125 1.578125 0.09375 4.425781 0.09375 Z M 4.425781 -1.136719 C 2.605469 -1.136719 1.820312 -1.746094 1.820312 -3.242188 C 1.820312 -4.730469 2.59375 -5.328125 4.425781 -5.328125 C 6.253906 -5.328125 7.027344 -4.71875 7.027344 -3.242188 C 7.027344 -1.753906 6.242188 -1.136719 4.425781 -1.136719 Z M 4.425781 -1.136719 "/></g></g></g><g fill="#03ccac" fill-opacity="1"><g transform="translate(236.058345, 267.025564)"><g><path d="M 0.453125 0 L 1.910156 0 L 1.910156 -4.96875 L 6.769531 0 L 8.785156 0 L 8.785156 -6.464844 L 7.324219 -6.464844 L 7.324219 -1.496094 L 2.476562 -6.464844 L 0.453125 -6.464844 Z M 0.453125 0 "/></g></g></g><g fill="#03ccac" fill-opacity="1"><g transform="translate(247.142493, 267.025564)"><g/></g></g><g fill="#03ccac" fill-opacity="1"><g transform="translate(253.358843, 267.025564)"><g><path d="M 0.453125 0 L 7.101562 0 L 7.101562 -1.226562 L 1.910156 -1.226562 L 1.910156 -6.464844 L 0.453125 -6.464844 Z M 0.453125 0 "/></g></g></g><g fill="#03ccac" fill-opacity="1"><g transform="translate(262.669526, 267.025564)"><g><path d="M 0.359375 0 L 1.976562 0 L 2.761719 -1.433594 L 6.882812 -1.433594 L 7.667969 0 L 9.28125 0 L 5.765625 -6.464844 L 3.878906 -6.464844 Z M 3.324219 -2.558594 L 4.820312 -5.273438 L 6.316406 -2.558594 Z M 3.324219 -2.558594 "/></g></g></g><g fill="#03ccac" fill-opacity="1"><g transform="translate(149.235623, 279.341212)"><g><path d="M 4.628906 0.09375 C 6.9375 0.09375 8.617188 -0.222656 8.617188 -1.941406 C 8.617188 -3.566406 7.039062 -3.695312 4.488281 -3.84375 C 2.484375 -3.960938 2.050781 -4.09375 2.050781 -4.65625 C 2.050781 -5.191406 2.484375 -5.386719 4.25 -5.386719 C 6.125 -5.386719 6.882812 -5.171875 6.882812 -4.359375 L 8.339844 -4.359375 C 8.339844 -5.949219 6.855469 -6.558594 4.433594 -6.558594 C 2.050781 -6.558594 0.589844 -6.152344 0.589844 -4.730469 C 0.589844 -3.289062 1.707031 -2.855469 4.488281 -2.714844 C 6.742188 -2.59375 7.160156 -2.503906 7.160156 -1.882812 C 7.160156 -1.3125 6.539062 -1.082031 4.71875 -1.082031 C 2.457031 -1.082031 1.820312 -1.433594 1.820312 -2.21875 L 0.359375 -2.21875 C 0.359375 -0.359375 1.976562 0.09375 4.628906 0.09375 Z M 4.628906 0.09375 "/></g></g></g><g fill="#03ccac" fill-opacity="1"><g transform="translate(160.061137, 279.341212)"><g><path d="M 4.425781 0.09375 C 7.261719 0.09375 8.488281 -1.136719 8.488281 -3.242188 C 8.488281 -5.339844 7.261719 -6.558594 4.425781 -6.558594 C 1.578125 -6.558594 0.359375 -5.347656 0.359375 -3.242188 C 0.359375 -1.125 1.578125 0.09375 4.425781 0.09375 Z M 4.425781 -1.136719 C 2.605469 -1.136719 1.820312 -1.746094 1.820312 -3.242188 C 1.820312 -4.730469 2.59375 -5.328125 4.425781 -5.328125 C 6.253906 -5.328125 7.027344 -4.71875 7.027344 -3.242188 C 7.027344 -1.753906 6.242188 -1.136719 4.425781 -1.136719 Z M 4.425781 -1.136719 "/></g></g></g><g fill="#03ccac" fill-opacity="1"><g transform="translate(170.757337, 279.341212)"><g><path d="M 4.425781 0.09375 C 7 0.09375 8.277344 -0.921875 8.460938 -2.734375 L 6.984375 -2.734375 C 6.816406 -1.578125 5.902344 -1.136719 4.425781 -1.136719 C 2.679688 -1.136719 1.820312 -1.746094 1.820312 -3.242188 C 1.820312 -4.730469 2.667969 -5.328125 4.425781 -5.328125 C 5.910156 -5.328125 6.816406 -4.894531 6.984375 -3.75 L 8.453125 -3.75 C 8.277344 -5.550781 7 -6.558594 4.425781 -6.558594 C 1.578125 -6.558594 0.359375 -5.347656 0.359375 -3.242188 C 0.359375 -1.125 1.578125 0.09375 4.425781 0.09375 Z M 4.425781 0.09375 "/></g></g></g><g fill="#03ccac" fill-opacity="1"><g transform="translate(181.425828, 279.341212)"><g><path d="M 0.453125 0 L 1.910156 0 L 1.910156 -6.464844 L 0.453125 -6.464844 Z M 0.453125 0 "/></g></g></g><g fill="#03ccac" fill-opacity="1"><g transform="translate(185.637798, 279.341212)"><g><path d="M 0.453125 0 L 7.289062 0 L 7.289062 -1.171875 L 1.910156 -1.171875 L 1.910156 -2.679688 L 7.289062 -2.679688 L 7.289062 -3.785156 L 1.910156 -3.785156 L 1.910156 -5.292969 L 7.289062 -5.292969 L 7.289062 -6.464844 L 0.453125 -6.464844 Z M 0.453125 0 "/></g></g></g><g fill="#03ccac" fill-opacity="1"><g transform="translate(195.133214, 279.341212)"><g><path d="M 0.453125 0 L 5.125 0 C 6.816406 0 8.285156 -1.035156 8.285156 -3.234375 C 8.285156 -5.429688 6.816406 -6.464844 5.125 -6.464844 L 0.453125 -6.464844 Z M 1.910156 -1.226562 L 1.910156 -5.238281 L 4.515625 -5.238281 C 5.976562 -5.238281 6.824219 -4.90625 6.824219 -3.234375 C 6.824219 -1.5625 5.976562 -1.226562 4.515625 -1.226562 Z M 1.910156 -1.226562 "/></g></g></g><g fill="#03ccac" fill-opacity="1"><g transform="translate(205.626213, 279.341212)"><g><path d="M 0.359375 0 L 1.976562 0 L 2.761719 -1.433594 L 6.882812 -1.433594 L 7.667969 0 L 9.28125 0 L 5.765625 -6.464844 L 3.878906 -6.464844 Z M 3.324219 -2.558594 L 4.820312 -5.273438 L 6.316406 -2.558594 Z M 3.324219 -2.558594 "/></g></g></g><g fill="#03ccac" fill-opacity="1"><g transform="translate(217.116784, 279.341212)"><g><path d="M 0.453125 0 L 5.125 0 C 6.816406 0 8.285156 -1.035156 8.285156 -3.234375 C 8.285156 -5.429688 6.816406 -6.464844 5.125 -6.464844 L 0.453125 -6.464844 Z M 1.910156 -1.226562 L 1.910156 -5.238281 L 4.515625 -5.238281 C 5.976562 -5.238281 6.824219 -4.90625 6.824219 -3.234375 C 6.824219 -1.5625 5.976562 -1.226562 4.515625 -1.226562 Z M 1.910156 -1.226562 "/></g></g></g></svg>